<?xml version="1.0" encoding="utf-8"?>
<!-- Generator: Adobe Illustrator 22.1.0, SVG Export Plug-In . SVG Version: 6.00 Build 0)  -->
<svg version="1.1" id="Layer_1" xmlns="http://www.w3.org/2000/svg" xmlns:xlink="http://www.w3.org/1999/xlink" x="0px" y="0px"
	 viewBox="0 0 3000 3000" style="enable-background:new 0 0 3000 3000;" xml:space="preserve">
<style type="text/css">
	.st0{fill:#FFFFFF;}
</style>
<g>
	<path class="st0" d="M788.4,1562.4v-132.6H110v1194.6h135.3v-505.2h439.5v-132.6H245.3v-424.3H788.4z"/>
	<path class="st0" d="M1113.5,1920.3v704.2h135.4v-533.1C1210,2043.9,1163.8,1986.1,1113.5,1920.3z"/>
	<path class="st0" d="M1728.1,2091.5v533h135.4v-704.1C1813.2,1986.2,1766.9,2044.1,1728.1,2091.5z"/>
	<path class="st0" d="M2148.1,1429.8v132.6H2450v1062h138.1v-1062H2890v-132.6H2148.1z"/>
	<g>
		<g>
			<path class="st0" d="M1488.6,375.5c-318.7,0-577.9,259.3-577.9,577.9c0,83.2,17,162.4,50.5,235.9
				c67.4,147.4,163.6,298.8,255.4,427.8c34,47.7,67.3,92.3,98.2,132.6c65,84.7,120,150.1,149.4,184.4c6.1,7.1,15,11.2,24.4,11.2
				c9.3,0,18.3-4.1,24.4-11.2c29.4-34.2,84.3-99.7,149.4-184.2c30.9-40.4,64.2-85,98.1-132.6c91.8-129.1,188.1-280.5,255.5-428
				c33.5-73.5,50.6-152.8,50.6-235.9C2066.5,634.8,1807.2,375.5,1488.6,375.5z M1488.6,1253.6c-165.6,0-300.2-134.7-300.2-300.2
				c0-165.6,134.6-300.3,300.2-300.3c165.6,0,300.2,134.7,300.2,300.3C1788.7,1118.9,1654.1,1253.6,1488.6,1253.6z"/>
		</g>
	</g>
</g>
</svg>
